<?xml version="1.0" encoding="UTF-8" standalone="no"?>
<svg
   xmlns:sketch="http://www.bohemiancoding.com/sketch/ns"
   xmlns:dc="http://purl.org/dc/elements/1.1/"
   xmlns:cc="http://creativecommons.org/ns#"
   xmlns:rdf="http://www.w3.org/1999/02/22-rdf-syntax-ns#"
   xmlns:svg="http://www.w3.org/2000/svg"
   xmlns="http://www.w3.org/2000/svg"
   xmlns:sodipodi="http://sodipodi.sourceforge.net/DTD/sodipodi-0.dtd"
   xmlns:inkscape="http://www.inkscape.org/namespaces/inkscape"
   width="147px"
   height="32px"
   viewBox="0 0 147 32"
   version="1.1"
   id="svg881"
   sodipodi:docname="button.svg"
   inkscape:version="0.92.4 (5da689c313, 2019-01-14)">
  <metadata
     id="metadata885">
    <rdf:RDF>
      <cc:Work
         rdf:about="">
        <dc:format>image/svg+xml</dc:format>
        <dc:type
           rdf:resource="http://purl.org/dc/dcmitype/StillImage" />
        <dc:title>button</dc:title>
      </cc:Work>
    </rdf:RDF>
  </metadata>
  <sodipodi:namedview
     pagecolor="#ffffff"
     bordercolor="#666666"
     borderopacity="1"
     objecttolerance="10"
     gridtolerance="10"
     guidetolerance="10"
     inkscape:pageopacity="0"
     inkscape:pageshadow="2"
     inkscape:window-width="1154"
     inkscape:window-height="480"
     id="namedview883"
     showgrid="false"
     inkscape:zoom="1.3661111"
     inkscape:cx="66.39563"
     inkscape:cy="30.858168"
     inkscape:window-x="0"
     inkscape:window-y="0"
     inkscape:window-maximized="0"
     inkscape:current-layer="svg881" />
  <!-- Generator: Sketch 3.0.4 (8053) - http://www.bohemiancoding.com/sketch -->
  <title
     id="title866">button</title>
  <desc
     id="desc868">Created with Sketch.</desc>
  <defs
     id="defs870">
    <filter
       inkscape:collect="always"
       style="color-interpolation-filters:sRGB"
       id="filter5860"
       x="-0.041078075"
       width="1.0821561"
       y="-0.054373961"
       height="1.1087479">
      <feGaussianBlur
         inkscape:collect="always"
         stdDeviation="1.4517945"
         id="feGaussianBlur5862" />
    </filter>
  </defs>
  <rect
     id="Background"
     sketch:type="MSShapeGroup"
     x="0"
     y="0"
     width="147"
     height="32"
     rx="4"
     style="fill:#7056bf;fill-rule:evenodd;stroke:none;stroke-width:1" />
  <g
     id="Icon"
     transform="translate(10,8)"
     sketch:type="MSShapeGroup"
     style="fill:#ffffff;fill-rule:evenodd;stroke:none;stroke-width:1">
    <path
       d="M 14.819,3.216 9.103,0.25 C 8.464,-0.082 7.536,-0.081 6.898,0.25 L 1.181,3.216 C 0.496,3.571 0,4.365 0,5.102 v 5.933 c 0,0.739 0.497,1.531 1.181,1.886 l 2.858,1.483 c 0.49,0.252 1.095,0.063 1.349,-0.426 0.254,-0.491 0.063,-1.094 -0.427,-1.349 L 2.106,11.148 C 2.068,11.124 2.008,11.039 2,11.035 L 1.996,5.143 C 2.008,5.098 2.068,5.013 2.103,4.991 L 7.816,2.026 C 7.897,1.991 8.106,1.992 8.181,2.025 l 5.713,2.964 C 13.932,5.013 13.992,5.098 14,5.102 l 0.003,5.893 c -0.011,0.044 -0.071,0.129 -0.105,0.151 l -2.859,1.483 c -0.49,0.255 -0.681,0.858 -0.427,1.349 0.178,0.342 0.528,0.539 0.889,0.539 0.155,0 0.313,-0.036 0.46,-0.113 l 2.857,-1.483 C 15.503,12.566 16,11.774 16,11.035 V 5.102 C 16,4.365 15.504,3.571 14.819,3.216"
       id="App"
       inkscape:connector-curvature="0" />
    <path
       d="m 11.707,9.707 c 0.391,-0.391 0.391,-1.023 0,-1.414 L 8.708,5.294 C 8.616,5.201 8.505,5.128 8.382,5.077 8.138,4.976 7.862,4.976 7.618,5.077 7.495,5.128 7.385,5.201 7.292,5.294 L 4.293,8.293 C 3.902,8.684 3.902,9.316 4.293,9.707 4.488,9.902 4.744,10 5,10 5.256,10 5.512,9.902 5.707,9.707 L 7,8.414 V 15 c 0,0.553 0.447,1 1,1 0.553,0 1,-0.447 1,-1 V 8.414 l 1.293,1.293 C 10.488,9.902 10.744,10 11,10 c 0.256,0 0.512,-0.098 0.707,-0.293"
       id="Arrow"
       inkscape:connector-curvature="0" />
  </g>
  <path
     d="m 81.393,21.091 c 0.351,0 0.78,-0.039 0.975,-0.078 V 20.09 c -0.182,0.052 -0.455,0.091 -0.702,0.091 -0.832,0 -1.066,-0.364 -1.066,-1.092 v -4.03 h 1.781 V 14.136 H 80.6 v -2.444 h -1.118 v 2.444 h -1.196 v 0.923 h 1.196 v 4.277 c 0,1.196 0.468,1.755 1.911,1.755 z m 5.304,0.052 c 1.677,0 3.185,-1.222 3.185,-3.575 0,-2.366 -1.508,-3.575 -3.185,-3.575 -1.69,0 -3.198,1.209 -3.198,3.575 0,2.353 1.521,3.575 3.198,3.575 z m 0,-0.949 c -1.391,0 -2.067,-1.17 -2.067,-2.626 0,-1.547 0.754,-2.613 2.067,-2.613 1.365,0 2.054,1.183 2.054,2.613 0,1.573 -0.754,2.626 -2.054,2.626 z M 94.705,21 h 1.144 v -4.537 h 4.953 V 21 h 1.144 v -9.62 h -1.144 v 4.03 h -4.953 v -4.03 h -1.144 z m 12.129,0.143 c 1.287,0 2.158,-0.546 2.795,-1.456 l -0.65,-0.572 c -0.52,0.715 -1.079,1.118 -2.067,1.118 -1.131,0 -2.028,-0.832 -2.067,-2.379 h 4.849 V 17.62 c 0,-2.483 -1.235,-3.627 -2.86,-3.627 -1.443,0 -3.107,1.079 -3.107,3.575 0,2.392 1.482,3.575 3.107,3.575 z m -1.963,-4.16 c 0.156,-1.417 1.027,-2.054 1.95,-2.054 1.131,0 1.716,0.832 1.807,2.054 z M 111.293,21 h 1.118 v -4.433 c 0.507,-0.975 1.326,-1.547 2.418,-1.547 0.039,0 0.286,0 0.325,0.013 l 0.078,-1.04 h -0.143 c -1.339,0 -2.145,0.624 -2.652,1.417 h -0.026 v -1.274 h -1.118 z m 8.008,0.143 c 1.677,0 3.185,-1.222 3.185,-3.575 0,-2.366 -1.508,-3.575 -3.185,-3.575 -1.69,0 -3.198,1.209 -3.198,3.575 0,2.353 1.521,3.575 3.198,3.575 z m 0,-0.949 c -1.391,0 -2.067,-1.17 -2.067,-2.626 0,-1.547 0.754,-2.613 2.067,-2.613 1.365,0 2.054,1.183 2.054,2.613 0,1.573 -0.754,2.626 -2.054,2.626 z M 124.072,21 h 1.118 v -2.106 l 1.365,-1.469 2.028,3.575 h 1.196 l -2.496,-4.407 2.249,-2.457 h -1.274 l -3.068,3.432 V 11.38 h -1.118 z m 8.983,0.13 c 1.118,0 1.976,-0.572 2.574,-1.157 V 21 h 1.131 v -6.864 h -1.131 v 4.953 c -0.715,0.676 -1.391,1.105 -2.223,1.105 -0.871,0 -1.261,-0.429 -1.261,-1.339 v -4.719 h -1.118 v 4.953 c 0,1.3 0.715,2.041 2.028,2.041 z"
     id="to-Heroku"
     sketch:type="MSShapeGroup"
     inkscape:connector-curvature="0"
     style="fill:#efebf5;fill-rule:evenodd;stroke:none;stroke-width:1;fill-opacity:1" />
  <path
     d="m 34.183,21 h 2.535 c 3.055,0 4.849,-1.573 4.849,-4.836 0,-3.224 -1.755,-4.784 -4.849,-4.784 h -2.535 z m 1.144,-1.027 v -7.54 h 1.508 c 2.34,0 3.588,1.144 3.588,3.731 0,2.678 -1.235,3.809 -3.562,3.809 z M 46,21.143 c 1.287,0 2.158,-0.546 2.795,-1.456 l -0.65,-0.572 c -0.52,0.715 -1.079,1.118 -2.067,1.118 -1.131,0 -2.028,-0.832 -2.067,-2.379 H 48.86 V 17.62 c 0,-2.483 -1.235,-3.627 -2.86,-3.627 -1.443,0 -3.107,1.079 -3.107,3.575 0,2.392 1.482,3.575 3.107,3.575 z m -1.963,-4.16 c 0.156,-1.417 1.027,-2.054 1.95,-2.054 1.131,0 1.716,0.832 1.807,2.054 z m 6.422,6.617 h 1.118 v -3.484 c 0.585,0.611 1.3,0.988 2.145,0.988 1.677,0 2.912,-1.157 2.912,-3.549 0,-2.392 -1.222,-3.562 -2.795,-3.562 -1.027,0 -1.742,0.52 -2.262,1.092 v -0.949 h -1.118 z m 3.107,-3.406 c -0.728,0 -1.391,-0.364 -1.989,-1.04 v -3.146 c 0.572,-0.624 1.209,-1.053 2.002,-1.053 1.105,0 1.937,0.858 1.937,2.613 0,1.82 -0.754,2.626 -1.95,2.626 z M 58.324,21 h 1.118 v -9.62 h -1.118 z m 5.98,0.143 c 1.677,0 3.185,-1.222 3.185,-3.575 0,-2.366 -1.508,-3.575 -3.185,-3.575 -1.69,0 -3.198,1.209 -3.198,3.575 0,2.353 1.521,3.575 3.198,3.575 z m 0,-0.949 c -1.391,0 -2.067,-1.17 -2.067,-2.626 0,-1.547 0.754,-2.613 2.067,-2.613 1.365,0 2.054,1.183 2.054,2.613 0,1.573 -0.754,2.626 -2.054,2.626 z m 5.161,3.445 c 1.339,0 1.872,-0.65 2.34,-1.859 l 2.938,-7.644 h -1.131 l -2.015,5.551 h -0.026 l -2.015,-5.551 h -1.183 l 2.652,6.903 -0.26,0.676 c -0.273,0.676 -0.611,0.975 -1.313,0.975 -0.481,0 -0.819,-0.065 -1.014,-0.117 l -0.26,0.897 c 0.299,0.091 0.676,0.169 1.287,0.169 z"
     id="Deploy"
     sketch:type="MSShapeGroup"
     inkscape:connector-curvature="0"
     style="fill:#ffffff;fill-rule:evenodd;stroke:none;stroke-width:1" />
  <style
     id="stylish-3"
     class="stylish"
     type="text/css">/* i really want this to be global */
#preview-contents h1{
    margin-bottom:0;
    padding-left:0.5em;
    border-left:4px solid #bf242a;
    font-size:2.0em;
    font-family:microsoft yahei;
}
#preview-contents h2{
    margin-bottom:0;
    padding-left:0.5em;
    border-left:3px solid #f39800;
    font-size:1.8em;
    font-family:microsoft yahei;    
}
#preview-contents h3{
    margin-bottom:0.5em;
    padding-left:0.5em;
    border-left:2px solid #2ca9e1;
    font-size:1.3em;
    font-family:microsoft yahei;
}
#preview-contents h4{
    margin-bottom:0.5em;
    padding-left:0.5em;
    border-left:2px solid #82ae46;
    font-size:1.1em;
    font-weight:bold;
    font-family:microsoft yahei;
}
#preview-contents h5{
    margin-bottom:0;
    padding-left:0.5em;
    border-left:1px solid #ea5506;
    font-size:1.0em;
    font-weight:bold;
    font-family:microsoft yahei;
}
#preview-contents p{
    text-indent:0em;
}
#preview-contents hr{
    margin-top:0.5em;
    border:1px solid rgba(128,128,128,0.2);
}
#preview-contents ul,
#preview-contents ol{
    margin-top:1.0em;
}
#preview-contents ul ul{
    margin:0
}
#preview-contents blockquote{
    margin-top:1.0em;
}
#preview-contents blockquote p{
    text-indent:0;
}
#preview-contents b{
    text-shadow: 1px 1px 1px #BBB;
}</style>
  <rect
     style="fill:#6034c6;fill-rule:evenodd;stroke:none;stroke-width:1;fill-opacity:0.12135922"
     rx="4"
     height="32"
     width="147"
     y="0"
     x="0"
     sketch:type="MSShapeGroup"
     id="rect1459" />
  <text
     transform="rotate(-31.703953)"
     id="text5170"
     y="64.188759"
     x="8.8662271"
     style="font-style:normal;font-weight:normal;font-size:30.50738335px;line-height:1.25;font-family:sans-serif;letter-spacing:0px;word-spacing:0px;fill:#6d52c0;fill-opacity:1;stroke:none;stroke-width:0.76268458;filter:url(#filter5860)"
     xml:space="preserve"><tspan
       style="font-style:normal;font-variant:normal;font-weight:bold;font-stretch:normal;font-family:'Neue Haas Unica Pro';-inkscape-font-specification:'Neue Haas Unica Pro Bold';fill:#6d52c0;fill-opacity:1;stroke-width:0.76268458;"
       y="64.188759"
       x="8.8662271"
       id="tspan5168"
       sodipodi:role="line">SOON</tspan></text>
  <text
     xml:space="preserve"
     style="font-style:normal;font-weight:normal;font-size:30.50738335px;line-height:1.25;font-family:sans-serif;letter-spacing:0px;word-spacing:0px;fill:#ffffff;fill-opacity:1;stroke:none;stroke-width:0.76268458;"
     x="8.8662271"
     y="64.188759"
     id="text5166"
     transform="rotate(-31.703953)"><tspan
       sodipodi:role="line"
       id="tspan5164"
       x="8.8662271"
       y="64.188759"
       style="font-style:normal;font-variant:normal;font-weight:bold;font-stretch:normal;font-family:'Neue Haas Unica Pro';-inkscape-font-specification:'Neue Haas Unica Pro Bold';fill:#ffffff;fill-opacity:1;stroke-width:0.76268458;">SOON</tspan></text>
</svg>
